<svg width="452" height="422" viewBox="0 0 452 422" fill="none" xmlns="http://www.w3.org/2000/svg">
<g clip-path="url(#clip0_2_670)">
<path d="M452 50.0309H17.3846V422H452V50.0309Z" fill="#DEF2F7"/>
<path d="M380.386 25.8283C379.895 26.9897 382.176 53.251 378.715 95.7335C376.513 122.94 379.639 148.02 379.757 181.722C379.757 206.291 377.456 240.092 377.79 264.267C378.145 302.024 379.422 333.699 380.072 353.739C380.544 368.307 368.508 376.91 351.576 376.634C313.777 376.024 244.492 374.665 182.189 373.229C160.143 372.757 144.174 368.976 125.59 368.563C109.994 368.209 91.0355 371.221 80.0617 370.985L53.0402 370.375C53.0402 370.375 62.8733 71.9724 62.8733 70.9881C63.8561 61.6836 64.0534 52.3126 63.4633 42.9748L64.132 27.5606C64.132 27.5606 62.9323 24.6471 70.7989 24.1353C78.6654 23.6234 160.202 23.6234 160.202 23.6234L380.386 25.8283Z" fill="white"/>
<path d="M279.931 377.973C279.931 377.599 284.061 353.03 284.237 349.861C284.415 346.691 283.195 337.084 289.882 338.226C296.569 339.368 337.691 346.771 337.691 346.771L334.623 382.206C334.623 382.206 321.761 382.559 313.836 382.737C305.911 382.914 289.882 381.93 286.716 381.851C283.55 381.772 278.948 382.206 279.931 377.973Z" fill="#FFEF5F"/>
<path d="M56.5604 252.592C56.5604 252.592 44.8983 274.247 44.8983 274.543C44.8983 274.837 40.0407 372.303 42.0073 371.004C43.974 369.705 52.9418 370.453 52.9418 370.453L56.5604 252.592Z" fill="#D8E9FF"/>
<path d="M56.3245 154.438L60.1005 150.382L64.1321 27.5606C64.1321 27.5606 64.8204 24.1352 70.032 23.9974C75.2436 23.8596 381.173 25.7298 381.173 25.7298L379.56 11.1818C371.694 13.3079 58.9992 9.56753 54.8692 14.9025C51.9979 18.6231 52.2929 26.4385 52.2929 26.4385C52.2929 26.4385 47.809 168.178 48.3597 166.86C48.9103 165.54 54.4366 155.816 56.3245 154.438Z" fill="#D8E9FF"/>
<path d="M12.5275 246.47L25.3696 227.926C25.3696 227.926 36.7171 210.09 38.5854 203.967C40.4537 197.845 43.2856 189.321 44.4853 184.517C45.6849 179.714 48.9299 169.616 48.9299 169.616C48.9299 169.616 55.1248 156.21 56.2851 154.438C57.4454 152.666 61.949 150.501 64.6236 148.394C67.2982 146.287 84.2899 142.33 87.2399 140.874C90.1898 139.417 98.2334 141.011 101.518 140.874C104.802 140.736 110.367 141.976 114.458 140.874C118.549 139.771 126.789 140.046 126.867 143.59C126.819 146.716 126.549 149.834 126.061 152.922C126.061 152.922 119.513 159.044 124.095 161.878C128.677 164.714 132.158 169.162 130.427 170.54C128.731 171.575 126.857 172.283 124.901 172.627C124.901 181.309 124.33 178.849 124.449 189.144C124.132 190.389 123.5 191.531 122.615 192.462C121.73 193.393 120.621 194.081 119.394 194.459C115.323 195.522 116.248 185.345 114.084 186.585C107.87 190.325 106.375 188.357 106.021 190.049C105.667 191.742 103.347 196.093 99.1774 203.279C95.0081 210.464 88.4985 225.17 73.2571 233.516C58.0157 241.864 54.1021 256.51 51.6241 261.293C49.1462 266.077 33.9638 299.228 22.1836 324.151L12.9601 342.538C12.3012 336.11 12.0975 329.643 12.3505 323.187C12.8814 314.741 11.8981 293.441 11.7211 284.208C11.5441 274.975 11.1901 250.565 12.5275 246.47Z" fill="#FFCEB6"/>
<path d="M214.54 250.368L212.278 238.556C212.469 229.357 212.135 220.156 211.275 210.996C211.275 210.996 214.521 197.215 220.518 194.223C220.518 194.223 223.783 188.671 225.908 184.124C228.031 179.576 232.024 177.863 234.285 175.738C236.547 173.612 242.821 167.626 245.082 170.186C246.556 171.858 247.935 173.614 249.212 175.442L252.948 169.536C252.948 169.536 255.308 161.662 259.025 161.662C262.742 161.662 266.243 164.831 266.557 166.899C266.872 168.965 267.914 172.805 266.951 175.935C265.987 179.065 263.844 184.065 270.235 185.778C276.627 187.49 273.972 190.128 274.935 192.214C275.899 194.302 282.547 197.196 282.428 200.542C282.31 203.889 280.816 206.448 282.428 209.322C282.428 209.322 287.129 222.414 285.87 226.351C284.611 230.288 276.371 246.706 275.545 249.974C274.719 253.241 267.482 266.51 266.892 269.364C266.302 272.219 265.811 283.972 265.299 288.165C264.787 292.358 263.883 299.977 264.551 302.949C265.221 305.922 267.581 329.978 268.485 334.782C269.39 339.585 272.988 375.236 272.654 375.827C272.32 376.417 251.965 378.15 244.256 378.918C236.547 379.686 221.404 379.705 216.468 379.626C211.532 379.548 208.325 379.725 209.505 378.366C210.685 377.008 209.997 369.213 210.765 365.335C211.532 361.456 215.072 344.684 215.386 338.896C215.701 333.108 218.394 316.158 219.063 310.134C219.732 304.111 220.243 293.539 220.164 288.756C220.202 283.004 219.488 277.274 218.041 271.707C216.153 264.719 215.13 253.379 214.54 250.368Z" fill="#FFCEB6"/>
<path d="M111.547 295.882C109.738 312.037 107.955 328.193 106.198 344.349C102.358 342.876 98.4141 341.692 94.3985 340.805C90.7195 339.46 86.8482 338.716 82.933 338.601C81.4187 338.285 79.9634 337.655 78.4491 337.281C71.2512 335.47 73.4735 343.187 81.0647 288.224C91.4626 289.716 101.678 292.283 111.547 295.882Z" fill="#DEF2F7"/>
<path d="M335.784 46.0654C350.986 47.7388 351.241 46.2426 351.025 48.034C348.684 66.8736 349.058 70.3974 347.603 75.2402C345.499 82.2485 342.962 97.9776 340.012 97.8989C311.515 97.2689 333.777 98.6666 309.017 96.3437C302.548 95.7334 299.361 96.7374 297.493 96.3437C302.351 84.0793 301.977 84.532 305.537 68.6454C309.883 49.1365 307.149 59.4717 309.077 45.2386C332.361 45.1008 324.495 44.8449 335.784 46.0654Z" fill="#FFEF5F"/>
<path d="M265.731 46.4788C267.698 46.1836 268.722 46.1442 268.564 47.8372C264.827 88.6661 267.856 61.4206 263.667 90.1623C263.391 91.9734 263.47 92.1309 261.7 92.308C255.8 92.623 235.151 91.56 222.171 92.8199C224.741 84.0027 226.356 74.9344 226.989 65.7712C226.989 65.7712 228.248 46.0851 229.389 45.9276C233.473 45.6826 237.572 45.7813 241.641 46.2229C244.571 46.341 263.726 46.7938 265.731 46.4788Z" fill="#DEF2F7"/>
<path d="M254.817 119.219C257.354 119.436 259.124 119.003 259.025 121.05C258.243 131.106 256.93 141.114 255.092 151.031C252.26 167.686 252.831 165.245 248.877 172.155C244.688 167.39 245.574 167.824 242.78 167.883C237.943 167.883 235.937 174.537 232.947 172.863C232.082 172.391 217.942 172.096 212.396 170.698C212.396 169.3 213.084 163.611 215.248 150.166C216.959 139.653 217.214 120.282 218.178 119.534C217.274 118.963 216.743 118.943 226.95 119.416C233.349 118.932 239.775 118.866 246.183 119.219C250.53 119.337 246.242 118.412 254.817 119.219Z" fill="#FFEF5F"/>
<path d="M322.6 117.467C337.967 118.715 341.371 117.242 341.164 118.959C339.803 138.429 332.233 157.306 326.085 174.506C325.219 176.959 324.476 179.577 323.486 179.454C316.288 178.493 298.342 174.097 298.3 174.097C297.145 173.851 295.929 173.892 294.772 173.667C289.905 172.645 288.853 171.99 286.13 171.949C278.704 171.949 279.467 171.704 279.24 171.091C283.015 163.093 284.996 160.251 291.142 135.239C296.423 113.827 289.533 117.385 299.91 117.242C299.91 117.242 307.851 116.424 310.429 116.383C311.873 116.362 308.634 116.322 322.6 117.467Z" fill="#006B99"/>
<path d="M344.574 236.863C340.641 297.162 341.447 277.2 339.953 306.158C336.826 307.89 321.977 303.047 316.805 302.359C310.296 301.472 310.493 301.532 310.08 301.335C307.011 299.721 304.907 300.094 294.012 297.634C292.635 297.319 291.475 296.571 290.63 296.492C287.994 296.217 289.134 295.429 289.45 288.953C290 277.554 296.372 231.115 296.411 230.446C298.122 230.78 311.024 232.67 311.77 232.414C314.21 231.824 316.432 232.926 318.772 233.26C343.394 236.824 332.046 234.5 344.574 236.863Z" fill="#FFCCDD"/>
<path d="M215.405 323.58C211.295 355.078 209.505 357.716 208.089 371.752L196.663 369.272C197.018 360.649 200.813 327.931 201.757 320.057L215.405 323.58Z" fill="#006B99"/>
<path d="M175.247 313.305C177.646 313.954 172.355 340.628 169.485 367.855C150.644 362.224 159.652 362.618 147.714 359.98C144.764 359.37 145.295 360.374 139.257 357.735C136.956 356.751 135.324 356.003 135.442 355.039C137.409 341.632 138.51 340.53 138.786 335.903C139.199 329.151 142.463 306.748 142.719 304.622C153.909 308.717 149.464 306.276 175.247 313.305Z" fill="#FFCCDD"/>
<path d="M211.767 244.973C216.172 258.419 211.571 251.824 218.061 282.377C211.925 281.905 206.378 279.838 200.519 278.873C200.519 278.873 207.992 216.35 208.719 216.665C209.447 216.98 210.076 216.488 210.115 217.472C210.685 233.496 208.463 235.13 211.767 244.973Z" fill="#FFEF5F"/>
<path d="M187.971 214.185C185.179 233.399 181.462 252.317 177.725 271.274C174.637 269.719 177.135 274.03 155.226 268.144C151.156 267.062 147.026 265.23 143.27 265.881C141.01 265.944 138.753 265.691 136.564 265.132C143.466 238.93 138.53 257.533 141.814 241.036C144.351 227.984 142.66 230.15 143.486 225.09C144.646 217.905 144.764 222.295 146.101 210.228C155.64 212.432 152.316 211.429 164.056 211.487C169.229 211.567 179.986 214.185 187.971 214.185Z" fill="#DEF2F7"/>
<path d="M118.313 207.353C110.447 248.025 117.447 217.905 107.831 259.601C107.339 261.706 95.677 258.104 78.0166 254.738C76.4433 254.443 76.7776 253.379 76.9153 252.769C83.6215 227.039 81.7729 228.969 82.8152 228.181C93.3564 220.8 97.624 205.897 100.299 206.152C107.988 206.959 114.773 206.704 118.313 207.353Z" fill="#006B99"/>
<path d="M118.175 119.12C118.175 126.818 117.33 129.712 117.073 138.098C117.085 138.201 117.074 138.305 117.042 138.403C117.009 138.501 116.955 138.591 116.883 138.666C116.813 138.741 116.726 138.8 116.629 138.838C116.533 138.875 116.43 138.891 116.327 138.886C113.691 139.083 111.056 139.377 108.46 139.436C99.8855 139.633 98.6268 136.425 88.243 138.709C89.1476 131.897 90.0326 125.282 90.9176 118.51C112.865 118.924 93.9659 119.12 118.175 119.12Z" fill="#FFEF5F"/>
<path d="M188.049 121.719C188.049 154.929 187.892 152.449 185.788 166.997C153.575 165.895 167.125 165.638 151.156 164.831C151.156 163.434 151.353 152.528 152.65 152.095C156.583 150.737 165.02 149.043 167.676 146.642C168.659 145.755 169.209 144.476 167.951 143.492C166.692 142.508 163.604 141.897 153.201 143.492C153.771 136.109 154.342 128.885 154.873 121.837C170.861 120.42 179.908 122.506 188.049 121.719Z" fill="#FFCCDD"/>
<path d="M194.835 46.6757C194.835 55.0423 195.168 48.979 192.868 65.0231C189.091 91.6978 188.935 89.5323 187.499 89.2764C182.13 88.2527 177.803 89.2764 170.605 89.0402C168.638 89.0402 168.638 89.4142 157.272 90.0441C155.109 90.1819 153.869 90.7332 154.184 88.8433C154.951 84.1974 154.872 83.2918 156.937 70.9486C158.452 61.9324 158.904 62.7002 159.239 56.3809C159.592 49.0183 159.613 47.3057 160.575 47.6994C162.699 48.5656 164.508 47.6994 172.258 46.4788C177.017 45.7308 175.07 46.6166 186.752 46.8529C190.232 46.9316 192.868 46.4788 194.835 46.6757Z" fill="#FFCCDD"/>
<path d="M129.798 47.7192C130.427 47.7192 126.297 77.7798 124.213 84.2172C122.698 88.7646 126.554 86.6189 109.915 86.6189C105.321 86.5087 100.724 86.673 96.1488 87.111C93.6118 87.111 94.5558 87.2685 97.3484 74.2166C97.3484 74.2166 100.593 51.4202 100.593 47.5223C106.061 47.9948 102.678 47.5223 108.165 47.5223C122.502 47.8373 123.643 47.4436 129.798 47.7192Z" fill="#FFEF5F"/>
<path d="M382.117 11.103C382.117 13.2094 385.126 12.855 225.672 13.5047C46.1569 14.2134 57.3471 13.2487 54.9478 17.9931C53.2565 21.3397 53.8465 19.9617 52.6665 60.7906C49.1659 181.703 47.0616 167.213 54.9478 153.827C60.2184 144.929 57.8584 167.942 60.3954 92.0521C61.7524 51.361 62.362 31.3403 62.6373 28.5842C62.9717 24.8832 64.604 22.954 68.2029 22.954C74.1028 22.954 372.146 24.2729 380.898 24.7651C384.025 24.9226 382.413 26.8518 381.212 26.9896C380.151 27.9739 69.6976 24.7651 65.784 25.9856C64.781 26.3006 61.5754 148.669 61.5754 148.708C82.4217 139.574 85.588 140.658 85.588 138.709C85.588 133.984 86.414 134.259 87.5546 123.767C88.3413 116.444 87.7709 116.463 90.6029 116.089C100.2 114.848 101.38 116.877 116.582 116.089C118.273 116.089 120.516 115.873 120.516 117.191C121.931 144.496 116.031 136.543 124.901 139.771C126.165 140.349 127.205 141.322 127.868 142.542C128.532 143.764 128.781 145.168 128.579 146.543C128.382 147.646 147.281 144.26 147.4 144.24C150.782 143.689 150.132 146.977 151.628 127.821C152.237 119.77 151.628 119.179 153.082 118.785C153.71 118.554 154.384 118.473 155.049 118.549C157.311 119.042 159.435 118.175 161.618 118.117C164.686 117.998 184.667 118.629 184.706 118.629C193.005 118.629 190.508 114.692 190.764 136.996C191.118 149.398 190.272 154.516 188.404 168.06C188.246 169.084 187.971 169.91 186.673 169.753C186.555 169.753 186.417 169.93 186.279 169.969C182.346 171.013 153.456 168.69 151.766 168.001C148.166 166.406 147.026 171.938 149.406 154.22C149.406 153.847 149.406 153.454 149.406 153.079C140.752 155.048 132.394 157.824 123.426 158.985C128.54 163.867 131.863 165.776 130.368 170.58C130.085 171.58 129.508 172.472 128.711 173.139C127.916 173.805 126.937 174.217 125.904 174.321C126.671 184.045 125.55 178.947 125.904 184.695C126.238 191.014 125.904 195.857 120.004 196.29C115.363 196.644 113.907 193.81 113.337 189.735C113.101 187.924 114.084 187.766 111.764 188.829C104.251 192.214 109.66 189.577 103.13 199.243C102.336 200.633 101.678 202.097 101.164 203.613C111.666 204.538 116.483 202.669 120.477 205.581C121.184 206.094 117.939 226.312 115.264 241.351C112.669 256.038 113.298 248.754 110.466 261.589C109.974 263.794 110.092 264.365 92.4909 260.605C91.5862 260.408 90.7602 259.817 89.8752 259.62C85.47 258.675 78.7441 257.652 74.9681 256.431C71.5462 255.387 74.0242 254.463 79.4324 231.292C79.7274 229.992 78.9211 231.292 76.1481 233.26C67.9669 239.166 65.5283 239.934 61.9687 245.072C56.0688 253.714 58.8024 236.902 55.0461 342.754C54.0432 370.827 55.0461 371.732 52.5682 371.673C50.8572 371.673 50.9162 376.614 54.4365 272.475C55.1641 250.82 56.4031 252.947 49.6182 268.025C44.564 279.227 46.4716 263.459 43.7183 345.53C42.912 370.925 43.4627 370.551 41.85 370.767C39.4901 371.083 40.0407 370.767 40.67 350.334C42.912 277.299 42.9907 282.357 42.5187 282.201C21.7903 325.923 30.3649 310.371 18.6241 334.348C16.6346 337.669 14.8355 341.1 13.2355 344.625C13.0947 344.969 12.8229 345.244 12.4799 345.387C12.1369 345.532 11.7508 345.533 11.4065 345.392C11.0623 345.251 10.7881 344.98 10.6443 344.636C10.5004 344.292 10.4987 343.906 10.6396 343.561C13.9435 335.057 16.6771 332.537 23.344 317.162C31.3285 298.776 25.3106 310.588 40.4734 279.759C49.8346 260.702 53.2762 251.352 57.8388 244.934C60.9657 240.525 64.4073 238.044 71.6052 232.571C87.7906 220.11 86.0206 223.909 99.4724 199.794C100.279 198.357 101.262 197.038 102.029 195.582C107.064 186.112 103.091 190.561 111.627 185.423C112.217 185.069 111.744 182.371 113.356 182.254C113.496 182.231 113.638 182.239 113.774 182.274C113.911 182.309 114.038 182.373 114.149 182.458C114.259 182.545 114.351 182.654 114.418 182.778C114.484 182.902 114.526 183.038 114.536 183.18C114.536 183.691 115.009 184.164 115.126 184.675C115.501 187.19 116.162 189.653 117.093 192.018C117.762 193.199 122.836 193.789 122.993 189.793C123.21 182.274 124.566 186.23 120.023 185.069C111.39 182.884 113.356 177.785 111.96 172.509C109.207 174.616 105.707 174.477 102.914 176.604C104.487 179.97 106.356 183.494 104.743 184.006C103.13 184.517 103.111 182.549 100.987 178.553C99.6691 176.093 95.8145 170.678 97.3878 170.245C98.9611 169.813 99.6887 171.604 101.557 173.927C111.528 170.501 108.185 171.387 111.882 169.006C111.329 167.717 110.448 166.596 109.325 165.757C108.598 165.068 109.876 164.182 110.427 164.34C117.133 166.308 120.26 172.489 126.16 170.717C127.222 170.403 128.677 167.628 127.123 166.269C126.573 165.776 121.44 161.091 121.341 160.835C120.633 158.867 119.591 159.989 112.295 161.426C110.624 161.761 108.912 161.898 107.241 162.194C99.7281 163.533 102.678 166.643 90.4259 174.005C82.048 179.143 82.9527 179.439 80.9467 182.51C78.9408 185.581 78.2131 187.156 79.1374 189.125C83.2477 197.944 83.287 199.459 82.4807 206.291C82.1857 208.85 82.048 210.444 80.5141 210.228C77.9574 209.756 81.9497 203.613 79.6094 197.097C74.1028 221.567 68.3209 216.783 69.9729 213.968C73.2768 208.554 73.3162 209.243 74.8305 203.889C76.3448 198.535 76.3055 199.459 76.3448 190.739C75.8027 189.849 75.516 188.828 75.516 187.786C75.516 186.744 75.8027 185.722 76.3448 184.833C84.3097 169.202 85.6863 177.194 100.574 161.603C105.254 156.701 102.363 151.76 97.9974 151.308C99.9641 154.438 101.4 155.835 98.4891 159.753C96.0898 163.001 89.7769 163.513 89.1673 159.418C89.0689 158.748 89.5606 156.76 90.8979 157.45C92.2352 158.138 91.4092 160.028 93.4939 159.418C97.8008 158.296 98.3318 155.894 96.4438 153.512C94.5558 151.13 94.6345 151.544 91.5665 152.922C75.8335 160.402 73.5718 163.69 70.5432 167.096C59.0384 180.089 56.6391 175.442 49.5002 190.719C49.3429 191.033 49.2446 191.998 47.5336 191.861C46.4913 191.762 48.2416 187.589 48.5759 186.841C54.4758 173.612 65.2333 172.372 57.1701 173.75C54.466 173.996 51.7959 174.53 49.2052 175.344C47.2386 175.915 44.7213 189.813 40.6307 201.369C39.4914 204.658 38.1784 207.885 36.6974 211.035C27.1396 229.54 23.167 233.91 15.7921 243.989C13.8255 246.627 13.4125 248.32 11.8588 247.926C7.35529 246.824 15.3398 243.261 31.9972 213.555C38.3494 202.235 39.2344 194.833 44.1313 179.301C44.9966 176.525 45.9406 175.541 44.6426 175.522C42.971 175.522 41.083 176.269 39.7261 173.553C37.7594 169.458 38.6247 165.521 44.2493 163.71C47.6123 162.666 46.3929 168.197 47.6319 128.078C47.6319 128.078 50.9752 22.4421 51.4275 19.942C52.9812 11.3786 48.3989 10.6699 136.19 10.6699C162.247 10.6699 196.624 9.96121 241.464 10.0793C386.188 10.6305 382.137 8.64224 382.117 11.103ZM185.788 167.096C187.892 152.449 188.049 154.929 188.049 121.818C179.908 122.605 170.861 120.518 154.873 122.073C154.342 129.102 153.771 136.327 153.201 143.728C163.604 142.114 166.633 142.685 167.951 143.728C169.269 144.771 168.659 145.992 167.676 146.878C165.02 149.279 156.682 150.973 152.65 152.331C151.353 152.764 151.156 163.67 151.156 165.068C167.164 165.737 153.575 165.993 185.788 167.096ZM165.001 145.441C165.001 144.595 162.247 145.145 161.067 145.283C150.919 146.406 152.159 146.346 152.001 149.221C161.776 147.252 164.903 146.189 165.001 145.362V145.441ZM124.213 147.901C126.18 147.587 125.964 142.763 122.718 142.252C118.234 141.563 111.547 142.449 106.1 142.37C101.478 142.37 94.5952 140.067 90.8979 141.208C68.1636 148.197 57.4651 150.657 54.3578 161.8C64.5647 158.729 78.8621 158.021 89.4032 151.031C92.1878 149.348 95.3735 148.443 98.6268 148.413C106.847 151.406 99.3938 151.741 124.213 147.901ZM115.461 176.722C115.658 182.805 124.153 183.907 123.604 179.754C123.347 177.943 123.328 176.093 123.21 174.124C119.277 174.281 117.034 171.427 113.967 169.616C114.845 171.888 115.35 174.288 115.461 176.722ZM117.073 138.098C117.33 129.712 118.175 126.818 118.175 119.12C93.9658 119.12 112.865 118.924 90.8782 118.51C89.9932 125.282 89.1082 131.897 88.2036 138.709C98.6071 136.425 99.8461 139.633 108.421 139.436C111.056 139.436 113.691 139.083 116.287 138.886C116.393 138.898 116.501 138.886 116.603 138.851C116.704 138.816 116.795 138.759 116.871 138.682C116.947 138.607 117.005 138.515 117.04 138.414C117.075 138.313 117.087 138.204 117.073 138.098ZM107.831 259.601C117.428 217.886 110.387 248.025 118.313 207.353C114.773 206.626 107.988 206.959 100.397 206.212C97.7221 205.956 93.4545 220.858 82.9134 228.24C81.7727 229.027 83.6213 227.099 77.0135 252.828C76.8758 253.379 76.5415 254.442 78.1148 254.797C95.6768 258.104 107.339 261.706 107.831 259.601Z" fill="#000001"/>
<path d="M351.221 44.3332C352.047 44.3332 353.955 44.4907 353.837 47.3058C353.208 62.7593 348.626 89.8671 343.571 100.36C343.197 101.108 342.962 101.147 337.042 100.95C310.964 100.064 336.117 101.58 309.745 99.1589C301.721 98.4108 292.733 100.753 294.74 95.5564C298.948 84.729 299.99 79.8075 303.727 64.413C308.585 44.3332 302.35 42.3646 309.49 42.3646C349.255 42.4236 321.368 43.3095 351.221 44.3332ZM351.025 47.9554C351.241 46.2427 351.025 47.7389 335.783 45.9868C324.475 44.7663 332.322 45.0222 309.077 45.0222C307.11 59.2552 309.883 48.9594 305.537 68.4289C301.976 84.3943 302.35 83.8628 297.493 96.1273C299.361 96.58 302.547 95.576 309.017 96.1273C333.777 98.4502 311.515 97.0525 340.012 97.6825C342.962 97.6825 345.499 82.032 347.602 75.0238C349.039 70.3188 348.684 66.795 351.025 47.9554Z" fill="#000001"/>
<path d="M347.327 235.682C347.327 236.135 346.324 260.034 346.108 262.357C345.419 269.877 345.066 273.204 344.909 274.463C345.006 270.822 344.554 277.082 344.909 274.463C344.457 290.488 342.607 302.024 343.394 302.142C342.214 312.595 345.361 312.26 321.191 306.729C315.98 305.548 312.144 305.154 308.664 304.406C307.346 304.13 306.127 303.441 304.731 303.146C301.249 302.359 297.729 301.709 294.209 300.941C293.128 300.704 291.22 299.839 287.857 298.973C284.965 298.264 285.89 297.515 286.323 287.614C286.673 282.207 287.33 276.823 288.289 271.491C288.795 263.253 289.721 255.047 291.062 246.903C291.534 243.969 292.32 240.682 293.658 232.06C294.13 228.969 293.521 227.197 295.624 227.453C311.653 229.421 311.357 229.304 312.459 229.068C314.17 228.694 326.54 231.45 326.58 231.45C330.948 231.554 335.308 231.902 339.638 232.493C347.21 234.048 347.189 231.941 347.327 235.682ZM339.953 306.158C341.447 277.2 340.68 297.162 344.574 236.863C332.046 234.5 343.394 236.863 318.772 233.358C316.432 233.025 314.21 231.922 311.77 232.512C311.024 232.67 298.122 230.78 296.411 230.544C296.411 231.214 290 277.652 289.45 289.05C289.134 295.527 287.994 296.315 290.63 296.591C291.475 296.591 292.596 297.418 294.012 297.732C304.907 300.193 307.011 299.819 310.08 301.433C310.493 301.63 310.296 301.571 316.805 302.457C321.977 303.047 336.826 307.89 339.953 306.158Z" fill="#000001"/>
<path d="M342.313 117.093C343.768 124.318 340.464 139.791 336.413 152.528C334.446 158.808 331.89 165.737 330.768 168.946C326.265 181.742 327.248 177.824 326.541 179.833C325.93 181.525 326.383 181.644 320.641 180.521C320.641 180.521 291.003 174.616 290.059 174.3C287.601 173.356 284.159 174.183 278.378 173.06C275.683 172.528 277.079 169.95 277.925 168.021C282.33 158.178 281.661 163.04 290.236 127.094C291.18 123.157 289.862 125.125 292.439 116.109C292.655 115.36 293.068 115.439 298.044 114.829V115.222C313.777 112.959 305.498 114.651 323.963 115.045C328.156 115.802 332.438 115.928 336.668 115.419C338.36 115.183 341.998 115.616 342.313 117.093ZM339.618 119.869C339.737 118.215 336.491 119.633 321.918 118.432C308.604 117.329 311.692 117.368 310.394 117.388C307.936 117.388 300.364 118.215 300.364 118.215C290.531 118.353 297.041 114.928 292.006 135.539C286.106 159.615 284.258 162.351 280.658 170.049C280.874 170.639 280.148 170.777 287.228 170.875C289.823 170.875 290.826 171.544 295.468 172.528C296.568 172.746 297.729 172.706 298.831 172.943C298.831 172.943 315.979 177.175 322.843 178.1C323.787 178.218 324.495 175.699 325.32 173.336C331.103 156.78 338.261 138.61 339.618 119.869Z" fill="#000001"/>
<path d="M323.885 342.951C342.273 346.081 340.169 340.234 338.242 361.023C336.452 380.316 336.688 384.331 333.974 383.839C331.26 383.347 334.76 367.5 335.449 356.928C335.724 352.735 335.449 354.015 335.979 347.775C324.082 345.806 291.278 339.723 287.01 339.093C285.674 348.405 282.232 374.075 281.11 378.111C280.994 378.405 280.781 378.648 280.506 378.804C280.23 378.958 279.911 379.014 279.6 378.96C279.289 378.907 279.006 378.749 278.797 378.512C278.59 378.275 278.469 377.974 278.456 377.657C278.613 375.316 280.423 362.342 280.717 360.748C283.628 340.747 282.822 335.923 287.109 336.573C328.428 342.932 310.217 340.569 323.885 342.951Z" fill="#000001"/>
<path d="M323.531 100.635C323.963 100.753 322.43 100.635 323.531 100.635V100.635Z" fill="#000001"/>
<path d="M284.041 207.314C283.884 209.657 288.643 213.791 287.581 221.547C285.83 234.599 288.014 226.232 278.594 247.139C275.152 254.797 276.431 255.289 271.966 263.341C267.856 270.762 267.718 271.609 267.836 278.007C268.21 299.938 264.434 280.133 267.836 316.316C270.078 339.94 271.061 342.105 272.143 351.121C272.595 354.921 273.087 363.464 273.166 363.602C273.991 365.019 273.5 366.633 273.834 368.149C276.509 380.119 270.412 378.091 270.157 375.749C269.9 373.406 270.314 376.949 268.898 358.031C266.361 324.565 261.149 304.977 263.804 289.878C265.771 278.243 263.214 278.932 265.279 269.955C266.459 264.778 270.648 260.112 272.694 252.612C274.248 246.942 275.368 247.257 280.187 236.311C282.153 231.902 283.844 229.756 283.943 222.945C283.943 217.04 285.084 217.787 282.389 212.668C279.695 207.55 281.268 206.429 280.757 203.357C279.577 196.408 275.997 199.42 273.854 192.982C273.615 191.769 273.049 190.642 272.217 189.726C271.386 188.81 270.319 188.139 269.134 187.786C259.144 181.408 266.911 178.75 265.437 169.458C265.31 168.677 264.995 167.939 264.518 167.308C264.042 166.677 263.418 166.171 262.703 165.835C254.561 160.737 255.879 165.048 254.837 168.119C254.541 168.985 251.906 172.863 250.903 175.206C248.641 181.112 244.098 186.073 240.028 190.64C237.215 193.81 235.17 199.597 230.568 203.022C229.368 203.928 226.222 204.499 223.941 208.928C223.174 210.386 220.853 209.362 221.542 207.491C224.334 199.735 228.326 203.554 234.207 192.865C237.668 186.585 239.221 186.801 245.023 179.085C245.746 178.154 246.128 177.004 246.106 175.825C246.085 174.647 245.661 173.512 244.905 172.608C244.694 172.22 244.371 171.905 243.978 171.705C243.585 171.504 243.14 171.428 242.702 171.485C241.364 171.743 240.147 172.435 239.242 173.454C230.293 181.053 228.523 181.447 226.537 186.624C223.468 194.499 217.844 197.136 213.695 207.688C211.728 212.826 213.065 215.385 213.065 220.622C213.065 224.559 212.731 230.465 212.632 233.792C212.475 240.289 215.346 243.635 217.136 254.954C217.648 258.242 218.257 265.762 218.532 267.357C219.909 275.664 222.013 280.153 221.64 291.492C221.443 297.299 221.03 305.272 220.695 309.21C220.362 313.147 211.197 373.425 210.862 375.788C210.41 378.702 210.449 381.083 207.579 380.473C206.005 380.138 206.555 377.934 207.244 375.709C207.539 374.685 208.089 375.138 196.86 372.225C194.893 371.752 192.927 371.575 193.379 369.685C193.379 369.685 196.624 340.491 196.624 340.451C196.525 335.667 198.118 331.14 198.453 326.434C198.647 323.885 199.143 321.367 199.928 318.934C200.696 316.552 199.594 316.671 215.956 320.431C217.628 306.119 218.139 311.473 218.139 285.744C207.441 284.523 205.788 282.948 200.793 281.983C194.716 280.842 197.725 278.42 203.685 229.618C205.651 214.381 205.159 212.709 209.585 213.869C210.155 208.534 210.882 202.767 219.909 191.821C223.193 187.884 224.511 182.667 226.635 180.009C228.051 178.237 229.9 177.391 231.119 175.954C219.319 174.537 207.677 175.128 208.798 171.347C209.943 166.661 210.562 161.861 210.646 157.036C211.158 150.047 211.079 163.513 214.422 124.574C214.678 121.562 214.717 119.16 214.717 119.12C214.441 116.522 215.956 115.538 216.959 115.832C221.168 117.054 226.792 115.518 245.829 116.05C249.035 116.05 245.829 115.203 254.62 115.892C261.523 116.444 261.424 116.581 261.601 117.604C262.191 121.069 259.518 145.165 256.527 160.402C260.618 160.107 263.529 162.371 266.538 164.34C267.069 164.684 267.509 165.153 267.821 165.705C268.133 166.256 268.307 166.876 268.327 167.509C268.812 169.979 268.905 172.51 268.603 175.009C267.581 179.281 266.105 181.939 269.075 183.455C274.11 186.053 274.208 185.994 276.115 189.361C277.492 191.762 276.824 193.023 278.888 194.302C283.667 197.333 284.395 201.92 284.041 207.314ZM259.025 121.05C259.025 119.081 257.354 119.436 254.817 119.219C246.242 118.412 250.53 119.337 246.164 119.219C239.754 118.866 233.33 118.932 226.93 119.416C216.723 118.943 217.254 118.963 218.158 119.534C217.175 120.282 216.939 139.653 215.228 150.166C213.065 163.611 212.397 169.3 212.397 170.698C217.942 172.096 232.063 172.391 232.948 172.863C235.977 174.537 237.982 167.961 242.782 167.883C245.574 167.883 244.748 167.39 248.878 172.155C252.811 165.245 252.261 167.686 255.092 151.031C256.93 141.114 258.244 131.106 259.025 121.05ZM218.061 282.377C211.571 251.824 216.094 258.42 211.767 244.973C208.541 235.13 210.685 233.497 210.115 217.413C210.115 216.428 209.211 216.843 208.719 216.606C208.227 216.37 200.597 278.833 200.597 278.874C206.378 279.838 211.925 281.905 218.061 282.377ZM208.089 371.752C209.565 357.716 211.295 355.157 215.405 323.581L201.816 320.076C200.872 327.951 197.076 360.649 196.722 369.291L208.089 371.752Z" fill="#000001"/>
<path d="M270.668 44.5496C271.828 47.345 269.075 83.9218 264.768 94.8279C264.394 95.7728 224.039 95.0248 222.584 95.4185C219.398 96.2454 218.651 93.6665 219.319 91.4813C222.101 82.127 223.739 72.4693 224.196 62.7199C225.105 57.4119 225.696 52.0544 225.966 46.6757C225.941 46.019 226.116 45.3701 226.467 44.8148C226.818 44.2594 227.329 43.8238 227.933 43.5653C230.115 43.0865 232.351 42.9077 234.58 43.0338C269.586 44.4512 269.764 42.3448 270.668 44.5496ZM268.564 47.8372C268.72 46.1442 267.62 46.1836 265.731 46.4788C263.844 46.7741 244.571 46.341 241.561 46.2229C237.493 45.7813 233.395 45.6826 229.31 45.9276C228.169 45.9276 226.91 65.7318 226.91 65.7712C226.278 74.9344 224.662 84.0027 222.092 92.82C235.071 91.5601 255.702 92.623 261.621 92.308C263.47 92.308 263.391 91.9734 263.588 90.1623C267.856 61.4206 264.827 88.5874 268.564 47.8372Z" fill="#000001"/>
<path d="M197.115 45.6717C197.345 48.0333 197.437 50.4062 197.391 52.7784C197.273 56.4006 191.885 91.3828 191.373 91.4615C190.39 91.619 189.702 92.5049 188.542 92.3868C185.473 91.9632 182.368 91.8642 179.279 92.0915C175.719 92.4852 174.244 91.9734 168.541 92.2884C143.86 93.5679 151.273 96.954 156.446 58.822C157.43 46.2426 156.583 44.2543 161.776 45.0418C162.837 45.2189 161.776 45.3174 168.266 44.1756C182.543 41.6361 176.978 44.904 194.52 43.4669C196.389 43.3094 196.939 43.7031 197.115 45.6717ZM192.907 64.9641C195.149 48.9199 194.874 54.9832 194.874 46.6166C192.907 46.4198 190.272 46.8726 186.83 46.7938C175.149 46.5576 176.997 45.6717 172.336 46.4198C164.607 47.6403 162.779 48.5065 160.654 47.6403C159.691 47.2466 159.671 48.9593 159.317 56.3219C159.023 62.6411 158.53 61.8734 157.017 70.8896C155.05 83.2328 155.05 84.1383 154.263 88.7842C153.948 90.7528 155.187 90.1229 157.35 89.9851C168.817 89.3551 168.698 88.8827 170.684 88.9811C177.883 89.2961 182.209 88.1936 187.578 89.2173C188.935 89.5323 189.132 91.6978 192.907 64.9641Z" fill="#000001"/>
<path d="M175.62 209.735C188.423 211.389 190.96 210.07 190.586 213.436C188.62 232.06 182.189 267.908 180.243 273.715C179.888 274.779 177.883 275.153 176.643 274.543C175.404 273.932 172.926 274.66 170.979 274.424C163.284 273.415 155.707 271.641 148.362 269.128C145.905 268.085 142.817 268.892 140.969 268.518C134.852 267.278 133.476 267.869 133.692 266.353C134.989 257.002 135.501 258.478 136.878 252.395C137.586 249.226 136.327 253.695 139.769 235.997C140.188 233.315 140.3 230.594 140.103 227.887C140.103 223.634 141.146 223.772 143.545 210.169C144.273 206.074 147.046 207.688 153.063 208.515C153.767 208.518 154.47 208.471 155.167 208.378C173.064 208.495 168.776 208.83 175.62 209.735ZM177.725 271.333C181.462 252.317 185.179 233.399 187.971 214.243C179.986 214.243 169.229 211.625 164.056 211.606C152.257 211.606 155.639 212.551 146.101 210.346C144.764 222.414 144.646 218.024 143.486 225.209C142.659 230.268 144.351 228.103 141.814 241.155C138.609 257.652 143.467 239.048 136.563 265.25C138.753 265.81 141.01 266.062 143.27 265.998C147.026 265.349 151.136 267.179 155.226 268.263C177.135 274.089 174.637 269.699 177.725 271.333Z" fill="#000001"/>
<path d="M176.84 310.233C179.534 310.923 178.512 312.537 178.236 316.474C177.528 326.908 177.98 325.667 177.725 327.635C176.643 335.864 174.48 348.523 174.008 352.46C171.786 370.531 173.044 372.244 169.603 371.26C157.017 367.677 158.55 367.992 155.837 366.378C147.97 361.672 147.065 365.354 135.127 359.055C130.801 356.771 132.177 357.854 135.246 340.234C135.777 337.105 137.212 324.052 137.92 319.899C140.791 300.055 140.104 302.024 143.171 302.181C150.015 303.54 148.54 304.15 154.007 304.898C158.295 305.37 160.339 306.06 176.84 310.233ZM169.485 367.855C172.357 340.628 177.646 313.954 175.247 313.305C149.366 306.276 153.909 308.717 142.699 304.701C142.464 306.828 139.199 329.231 138.766 335.983C138.49 340.608 137.35 341.711 135.423 355.117C135.285 356.082 136.936 356.83 139.238 357.815C145.276 360.452 144.744 359.448 147.694 360.058C159.749 362.618 150.644 362.224 169.485 367.855Z" fill="#000001"/>
<path d="M129.64 44.6087C133.574 44.4118 134.105 42.5219 129.778 70.8305C128.953 76.1458 127.399 83.1343 126.12 89.1976C125.766 90.8907 123.976 90.3985 121.636 90.2607C99.4132 88.9417 92.1367 92.2293 91.8024 86.855C100.77 37.6398 94.9096 45.3174 104.31 44.904C108.46 44.7268 124.272 44.8843 129.64 44.6087ZM124.173 84.2171C126.139 77.7797 130.388 47.7388 129.759 47.7191C123.643 47.4435 122.502 47.8372 108.125 47.601C102.639 47.5025 106.021 48.034 100.554 47.601C100.554 51.5382 97.3286 74.2559 97.3089 74.2953C94.5163 87.3472 93.5723 87.2684 96.1093 87.1897C100.684 86.7517 105.281 86.5873 109.876 86.6975C126.552 86.6188 122.698 88.7646 124.173 84.2171Z" fill="#000001"/>
<path d="M112.433 292.732C115.579 293.461 114.104 295.233 113.239 304.13C109.306 343.877 109.758 349.015 105.903 347.695C101.646 346.005 97.2508 344.688 92.7662 343.758C80.9664 340.668 88.597 342.479 81.1828 341.435C78.9211 341.121 76.5808 338.896 73.3162 339.27C69.147 339.743 71.3496 329.82 78.3115 289.228C78.7638 286.491 77.9575 284.483 80.2781 285.035C83.4247 285.764 90.3473 286.787 96.0112 287.869C105.195 289.602 106.887 291.354 112.433 292.732ZM106.198 344.349C108.008 328.167 109.824 312.011 111.646 295.882C101.777 292.276 91.5616 289.703 81.1631 288.204C73.5719 343.128 71.3299 335.451 78.5475 337.262C80.0618 337.636 81.5171 338.266 83.0314 338.581C86.9013 338.717 90.725 339.467 94.3592 340.805C98.3882 341.691 102.346 342.875 106.198 344.349Z" fill="#000001"/>
<path d="M94.1624 184.872C95.4013 187.018 97.6826 187.963 97.545 189.932C97.545 190.226 96.896 190.463 96.424 190.817C94.6477 189.823 93.1523 188.394 92.0777 186.663C89.1278 181.584 87.1022 181.584 86.6892 180.167C86.1778 178.395 87.6921 177.765 88.6558 178.572C90.876 180.302 92.7452 182.44 94.1624 184.872Z" fill="#000001"/>
</g>
<defs>
<clipPath id="clip0_2_670">
<rect width="452" height="422" fill="white"/>
</clipPath>
</defs>
</svg>
